<?xml version="1.0" standalone="yes"?>
<svg xmlns="http://www.w3.org/2000/svg" width="640" height="110">
<path style="fill:#020309; stroke:none;" d="M0 0L0 110L56 110L56 109C43.6155 105.416 33.1049 99.9981 24.7608 89.8302C6.12186 67.1175 12.0153 27.7876 36.3002 11.5285C47.1258 4.28062 61.2852 2.0706 74 3.09337C133.776 7.9017 135.698 97.1473 79 109L79 110L640 110L640 0L0 0z"/>
<path style="fill:#1025e3; stroke:none;" d="M56 3L56 4L59 4L56 3z"/>
<path style="fill:#16adf6; stroke:none;" d="M17 43L41 17.0432L69 4C46.7913 -2.5621 18.0157 20.8268 17 43z"/>
<path style="fill:#1025e3; stroke:none;" d="M68 3L67 7C92.8263 13.22 115.752 26.9893 116 57L120 56L120 68C133.639 35.4965 97.7845 3.00328 68 3M53 4L54 5L53 4M49 5L50 6L49 5M47 6L48 7L47 6z"/>
<path style="fill:#7067ca; stroke:none;" d="M63 8L63 9L76 9L63 8z"/>
<path style="fill:#1025e3; stroke:none;" d="M42 8L43 9L42 8M40 9L41 10L40 9z"/>
<path style="fill:#7067ca; stroke:none;" d="M57 9L58 10L57 9z"/>
<path style="fill:#d0bdfc; stroke:none;" d="M58 9.46451C9.30876 18.2278 7.8364 90.4801 55 102.844C61.471 104.541 69.4057 104.701 76 103.536C124.737 94.9246 128.13 22.7733 80 10.1559C73.2829 8.39496 64.8428 8.23297 58 9.46451z"/>
<path style="fill:#7067ca; stroke:none;" d="M77 9L77 10L80 10L77 9z"/>
<path style="fill:#1025e3; stroke:none;" d="M35 13L39 11L35 13z"/>
<path style="fill:#7067ca; stroke:none;" d="M81 10L81 11L84 11L81 10M50 11L51 12L50 11M84.6667 11.3333L85.3333 11.6667L84.6667 11.3333M87 12L88 13L87 12z"/>
<path style="fill:#1025e3; stroke:none;" d="M33 13L34 14L33 13z"/>
<path style="fill:#7067ca; stroke:none;" d="M89 13L90 14L89 13z"/>
<path style="fill:#1025e3; stroke:none;" d="M32 14L33 15L32 14z"/>
<path style="fill:#7067ca; stroke:none;" d="M91 14L92 15L91 14M92 15L93 16L92 15M94 16L95 17L94 16z"/>
<path style="fill:#1025e3; stroke:none;" d="M29 17L30 18L29 17z"/>
<path style="fill:#7067ca; stroke:none;" d="M67 17L55 28L55 29L67 18L68 18L75 27L76 27L67 17M95 17L96 18L95 17z"/>
<path style="fill:#1025e3; stroke:none;" d="M28 18L29 19L28 18z"/>
<path style="fill:#7067ca; stroke:none;" d="M38 18L39 19L38 18z"/>
<path style="fill:#1025e3; stroke:none;" d="M67 18L55 29L59 36C50.7973 34.0471 40.9906 34.295 33 37C35.5242 42.8178 44.3362 56.2086 34 57L39 64L32 64C40.2469 104.041 94.7924 103.85 103 64L96 64L101 57L94 57L101 37L75 36L79 30L67 18z"/>
<path style="fill:#7067ca; stroke:none;" d="M96.6667 18.3333L97.3333 18.6667L96.6667 18.3333M98 19L99 20L98 19z"/>
<path style="fill:#1025e3; stroke:none;" d="M27 20L28 21L27 20z"/>
<path style="fill:#7067ca; stroke:none;" d="M99 20L100 21L99 20z"/>
<path style="fill:#1025e3; stroke:none;" d="M25 21L24 24L25 21z"/>
<path style="fill:#7067ca; stroke:none;" d="M67 21L61 29L62 29L63 26L64 26L67 29L65 27L65 26L67 21M100 21L101 22L100 21M101 22L102 23L101 22M102 23L103 24L102 23z"/>
<path style="fill:#1025e3; stroke:none;" d="M22 24L22 27L23 27L24 24L22 24z"/>
<path style="fill:#7067ca; stroke:none;" d="M103 24L104 25L103 24M104 25L105 26L104 25z"/>
<path style="fill:#d0bdfc; stroke:none;" d="M63 26L62 29L65 29L63 26z"/>
<path style="fill:#7067ca; stroke:none;" d="M105.333 26.6667L105.667 27.3333L105.333 26.6667z"/>
<path style="fill:#1025e3; stroke:none;" d="M21.3333 27.6667L21.6667 28.3333L21.3333 27.6667z"/>
<path style="fill:#7067ca; stroke:none;" d="M29 27L30 28L29 27M77.3333 27.6667L77.6667 28.3333L77.3333 27.6667M28 28L29 29L28 28M106 28L107 29L106 28z"/>
<path style="fill:#1025e3; stroke:none;" d="M20.3333 29.6667L20.6667 30.3333L20.3333 29.6667z"/>
<path style="fill:#7067ca; stroke:none;" d="M107 29L108 30L107 29M55 30L56 31L55 30M78 30L79 31L78 30z"/>
<path style="fill:#1025e3; stroke:none;" d="M19.3333 31.6667L19.6667 32.3333L19.3333 31.6667z"/>
<path style="fill:#7067ca; stroke:none;" d="M26 31L27 32L26 31M77 31L78 32L77 31M108 31L109 32L108 31z"/>
<path style="fill:#1025e3; stroke:none;" d="M142 31L142 36L137 36L137 73L170 73L185 75L186 75L186 46L189 46L189 73L214 73L214 51L217 51L217 73L392 73L392 46L395 46L395 73L420 73L420 51L423 51L423 69L428 69L428 73L495 73L495 69L498 69L498 73L626 73L626 36L622 36L622 31L602 31L602 36L598 36L598 31L578 31L578 36L575 36L575 31L541 31L541 36L533 36L533 31L498 31L498 36L494 36L494 59L491 59L491 55L472 55L472 40L467 40L467 36L462 36L462 31L428 31L428 36L425 36L425 31L386 31L386 36L383 36L383 31L348 31L348 36L341 36L341 31L306 31L306 36L303 36L303 31L283 31L283 36L279 36L279 31L259 31L259 36L256 36L256 31L180 31L180 36L176 36L176 31L142 31z"/>
<path style="fill:#7067ca; stroke:none;" d="M57 32L58 33L57 32M76 32L77 33L76 32M109.333 32.6667L109.667 33.3333L109.333 32.6667M25 33L26 34L25 33M58 33L57 36L58 33M75 33L77 36L75 33z"/>
<path style="fill:#1025e3; stroke:none;" d="M18 34L19 35L18 34z"/>
<path style="fill:#7067ca; stroke:none;" d="M24.3333 34.6667L24.6667 35.3333L24.3333 34.6667M34 35L34 36L57 35L34 35M77 34L77 35L96 35L77 34M110 34L111 35L110 34M23.3333 36.6667L23.6667 37.3333L23.3333 36.6667M33 36L34 37L33 36M97 36L97 37L101 37L97 36M111 36L112 37L111 36z"/>
<path style="fill:#1025e3; stroke:none;" d="M17 37L18 38L17 37z"/>
<path style="fill:#7067ca; stroke:none;" d="M32.3333 37.6667L32.6667 38.3333L32.3333 37.6667M101 37L101 40L102 40L101 37z"/>
<path style="fill:#020309; stroke:none;" d="M148 37L148 41L143 41L143 69L151 69L151 59L167 59L167 69L175 69L175 41L170 41L170 37L148 37M186 37L186 40L195 40L195 69L203 69L203 40L212 40L212 37L186 37M223 37L223 69L250 69L250 64L255 64L255 55L250 55L250 50L255 50L255 41L250 41L250 37L223 37M265 37L265 69L273 69L273 55L289 55L289 69L297 69L297 37L289 37L289 51L273 51L273 37L265 37M312 37L312 41L308 41L308 64L312 64L312 69L334 69L334 64L339 64L339 41L334 41L334 37L312 37M354 37L354 41L350 41L350 50L354 50L354 55L373 55L373 65L358 65L358 60L350 60L350 64L354 64L354 69L376 69L376 64L381 64L381 55L376 55L376 51L358 51L358 40L373 40L373 45L381 45L381 41L376 41L376 37L354 37M392 37L392 40L401 40L401 69L409 69L409 40L419 40L419 37L392 37M434 37L434 41L429 41L429 50L434 50L434 55L453 55L453 65L437 65L437 60L429 60L429 64L434 64L434 69L456 69L456 64L461 64L461 55L456 55L456 51L437 51L437 40L453 40L453 45L461 45L461 41L456 41L456 37L434 37M505 37L505 41L500 41L500 64L505 64L505 69L527 69L527 64L531 64L531 60L523 60L523 65L508 65L508 40L523 40L523 45L531 45L531 41L527 41L527 37L505 37M547 37L547 41L542 41L542 64L547 64L547 69L569 69L569 64L574 64L574 41L569 41L569 37L547 37M584 37L584 69L592 69L592 50L598 50L598 55L602 55L602 50L608 50L608 69L616 69L616 37L608 37L608 41L603 41L603 46L597 46L597 41L592 41L592 37L584 37z"/>
<path style="fill:#1025e3; stroke:none;" d="M16 38C15.0678 47.3637 12.7579 56.4133 14.3248 66C18.1818 89.5967 38.4253 109.78 63 110L63 109L57 109L57 104C25.5661 96.707 18.8087 69.7468 20 42L17 43L16 38z"/>
<path style="fill:#7067ca; stroke:none;" d="M22.3333 38.6667L22.6667 39.3333L22.3333 38.6667M112.333 38.6667L112.667 39.3333L112.333 38.6667M33 39L34 40L33 39M21 40L19 65L20 65L21 40M34 40L34 42L36 42L34 40M42 40L45 49L42 40z"/>
<path style="fill:#d0bdfc; stroke:none;" d="M43 40C43.1122 49.9829 50.6169 51.5374 59 48C58.6746 37.9095 51.4752 40 43 40z"/>
<path style="fill:#7067ca; stroke:none;" d="M58 40L59 41L58 40M75 40L73 42L73 43L75 49L76 49L74 43L74 42L75 40z"/>
<path style="fill:#d0bdfc; stroke:none;" d="M74 42L74 43L76 49C84.6688 50.6094 91.8843 50.2932 92 40L74 42z"/>
<path style="fill:#7067ca; stroke:none;" d="M99 40L98 42L100 42L99 40z"/>
<path style="fill:#1025e3; stroke:none;" d="M151 40L151 55L167 55L167 40L151 40M231 40L231 51L247 51L247 40L231 40M316 40L316 65L331 65L331 40L316 40M550 40L550 65L566 65L566 40L550 40z"/>
<path style="fill:#7067ca; stroke:none;" d="M59 41L60 42L59 41M113 41L113 44L114 44L113 41M36 42L38 51L36 42M60 42L59 44L61 44L60 42M58 45L59 46L58 45M66 48L67 48L67 46L68 46L70 52L65 49L64 49C65.2603 52.7979 67.3258 52.9792 71 52L68 45L66 48M114 45L114 49L115 49L114 45z"/>
<path style="fill:#d0bdfc; stroke:none;" d="M67 46L65 52L70 52L67 46z"/>
<path style="fill:#7067ca; stroke:none;" d="M90.6667 47.3333L91.3333 47.6667L90.6667 47.3333M58 48L59 49L58 48M47 49L48 50L47 49M55 49L55 50L58 50L55 49M77.6667 49.3333L78.3333 49.6667L77.6667 49.3333M87.6667 49.3333L88.3333 49.6667L87.6667 49.3333M115 49L115 60L116 60L115 49M48 50L48 51L55 51L48 50M79 50L79 51L87 51L79 50M96.6667 50.3333L97.3333 50.6667L96.6667 50.3333M38 51L39 52L38 51M39 52L40 53L39 52M94 52L95 53L94 52M40 53L40 56L41 56L40 53z"/>
<path style="fill:#1025e3; stroke:none;" d="M231 55L231 65L247 65L247 55L231 55z"/>
<path style="fill:#7067ca; stroke:none;" d="M34 56L34 57L40 57L34 56M94 56L94 57L101 57L94 56z"/>
<path style="fill:#16adf6; stroke:none;" d="M58 109C64.3865 109.274 70.5876 110.67 77 109.536C104.75 104.631 120 83.004 120 56C112.703 58.8631 113.122 71.5738 109.676 78C102.957 90.5288 90.8227 99.9948 77 103.112C71.0129 104.462 59.3408 101.279 58 109z"/>
<path style="fill:#7067ca; stroke:none;" d="M33.3333 57.6667L33.6667 58.3333L33.3333 57.6667M101 57L100 59L102 59L101 57M34 59L35 60L34 59M99.3333 59.6667L99.6667 60.3333L99.3333 59.6667M35 60L36 61L35 60M67 60L74 67L67 60z"/>
<path style="fill:#020309; stroke:none;" d="M476 60L476 69L484 69L484 60L476 60z"/>
<path style="fill:#7067ca; stroke:none;" d="M36 61L37 62L36 61z"/>
<path style="fill:#d0bdfc; stroke:none;" d="M57 68L57 69C63.62 73.682 71.4637 75.267 77 68C66.2697 62.4418 67.7044 63.0164 57 68z"/>
<path style="fill:#7067ca; stroke:none;" d="M98 61L99 62L98 61M36 64L39 64L38 62L36 64M64 62L65 63L64 62M96 62L103 64L103 63L96 62M33.6667 63.3333L34.3333 63.6667L33.6667 63.3333M31 64L31 67L32 67L31 64M62 64L63 65L62 64M103 64L103 67L104 67L103 64M20 65L20 69L21 69L20 65M61 65L62 66L61 65M60 66L61 67L60 66M32 67L33 68L32 67M57 67L57 68L60 68L57 67M75.6667 67.3333L76.3333 67.6667L75.6667 67.3333M102 67L103 68L102 67M33 68L33 73L34 73L33 68z"/>
<path style="fill:#d0bdfc; stroke:none;" d="M46 68L48 74L49 74L48 68L46 68z"/>
<path style="fill:#7067ca; stroke:none;" d="M86 68L86 74L87 74L86 68z"/>
<path style="fill:#d0bdfc; stroke:none;" d="M87 68L87 72L88 72L87 68z"/>
<path style="fill:#7067ca; stroke:none;" d="M88 68L88 71L89 71L88 68M101 68L101 73L102 73L101 68M21 69L21 73L22 73L21 69M57.6667 69.3333L58.3333 69.6667L57.6667 69.3333M76 69L77 70L76 69M75 70L76 71L75 70z"/>
<path style="fill:#1025e3; stroke:none;" d="M119 70L120 71L119 70z"/>
<path style="fill:#7067ca; stroke:none;" d="M60.3333 71.6667L60.6667 72.3333L60.3333 71.6667M74 71L75 72L74 71M47.3333 72.6667L47.6667 73.3333L47.3333 72.6667M49.3333 72.6667L49.6667 73.3333L49.3333 72.6667M73 72L74 73L73 72M84.3333 72.6667L84.6667 73.3333L84.3333 72.6667z"/>
<path style="fill:#d0bdfc; stroke:none;" d="M85.3333 72.6667L85.6667 73.3333L85.3333 72.6667z"/>
<path style="fill:#7067ca; stroke:none;" d="M22 73L22 76L23 76L22 73M34 73L34 76L35 76L34 73M100 73L100 76L101 76L100 73z"/>
<path style="fill:#1025e3; stroke:none;" d="M118 74L119 75L118 74M165 74L166 75L165 74M287 74L288 75L287 74M307 74L308 75L307 74M545 74L546 75L545 74z"/>
<path style="fill:#7067ca; stroke:none;" d="M81 75L75 81L77 78L83 76L81 75M23.3333 76.6667L23.6667 77.3333L23.3333 76.6667M35 76L36 77L35 76z"/>
<path style="fill:#d0bdfc; stroke:none;" d="M81 76L82 77L81 76z"/>
<path style="fill:#7067ca; stroke:none;" d="M99 76L100 77L99 76z"/>
<path style="fill:#1025e3; stroke:none;" d="M117 76L118 77L117 76z"/>
<path style="fill:#7067ca; stroke:none;" d="M36 77L36 80L37 80L36 77M98 77L98 80L99 80L98 77M24.3333 78.6667L24.6667 79.3333L24.3333 78.6667z"/>
<path style="fill:#d0bdfc; stroke:none;" d="M77 78L77 79L80 79L77 78z"/>
<path style="fill:#1025e3; stroke:none;" d="M116 79L117 80L116 79z"/>
<path style="fill:#7067ca; stroke:none;" d="M25 80L26 81L25 80M38.3333 80.6667L38.6667 81.3333L38.3333 80.6667M96 80L96 82L98 80L96 80M63 81L62 83L63 81z"/>
<path style="fill:#d0bdfc; stroke:none;" d="M63 82L63 83L71 83L71 81L63 82z"/>
<path style="fill:#7067ca; stroke:none;" d="M71.3333 81.6667L71.6667 82.3333L71.3333 81.6667z"/>
<path style="fill:#1025e3; stroke:none;" d="M115 81L116 82L115 81z"/>
<path style="fill:#d0bdfc; stroke:none;" d="M371 81L371 88L384 88C383.444 80.0959 377.453 81 371 81M386 88L392 88L392 84L394 84L394 88L399 88C398.352 78.7877 386.648 78.7877 386 88M401 81L401 88L414 88L414 81L409 81L409 87L408 87L405 85L405 81L401 81M416 81L416 88L427 88L427 85L422 85L422 84L429 84L429 81L416 81M431 81L431 88L444 88C443.444 80.0959 437.453 81 431 81M446 81L446 88L457 88L457 85L452 85L452 84L459 84L459 81L446 81M461 81L461 88L465 88L465 84L467 84L467 88L474 88C473.444 80.0959 467.453 81 461 81M484 81L484 88L497 88L497 87L495 86C501.275 81.415 486.19 81 484 81M499 81C499.648 90.2123 511.352 90.2123 512 81L506 81L506 85L504 85L504 81L499 81M534 88L534 87L527 85L527 84L532 84L532 81C517.803 81.011 522.086 88 534 88M536 81L536 88L547 88L547 85L542 85L542 84L549 84L549 81L536 81M551 88L564 88C563.352 78.7877 551.648 78.7877 551 88M566 81L566 88L579 88C578.444 80.0959 572.453 81 566 81M581 81L583 87L583 88C588.474 87.9385 592.433 86.6822 594 81L581 81M596 81L596 88L609 88L609 81L604 81L604 87L596 81M611 88L624 88L624 87L617 84L624 86C621.743 78.0156 611.55 80.188 611 88z"/>
<path style="fill:#7067ca; stroke:none;" d="M26 82L27 83L26 82M39 82L41 84L41 82L39 82M94 82L94 84L96 82L94 82M27.3333 83.6667L27.6667 84.3333L27.3333 83.6667M64 83L64 84L71 84L64 83z"/>
<path style="fill:#1025e3; stroke:none;" d="M114.333 83.6667L114.667 84.3333L114.333 83.6667z"/>
<path style="fill:#7067ca; stroke:none;" d="M41 84L42 85L41 84M92.6667 84.3333L93.3333 84.6667L92.6667 84.3333z"/>
<path style="fill:#020309; stroke:none;" d="M377 84L377 87L379 87L379 84L377 84M392 84L392 91L394 91L394 84L392 84M437 84L437 87L439 87L439 84L437 84M465 84L465 91L467 91L467 84L465 84M489.667 84.3333L490.333 84.6667L489.667 84.3333M555 84L555 87L557 87L557 84L555 84M572 84L572 87L574 87L574 84L572 84z"/>
<path style="fill:#7067ca; stroke:none;" d="M28 85L29 86L28 85M42 85L43 86L42 85M29 86L30 87L29 86M90 86L90 88L92 86L90 86M30 87L36 93L30 87M44 87L45 88L44 87z"/>
<path style="fill:#1025e3; stroke:none;" d="M112 87L111 89L113 89L112 87z"/>
<path style="fill:#7067ca; stroke:none;" d="M86 89L86 90L90 89L86 89M371 88L371 92L382 90L382 88L371 88M386 88C387.814 93.4648 394.155 92 399 92L399 88L393 91L392 88L386 88M401 88L401 92L414 92L414 88L401 88M416 88L416 92L429 92L429 91L422 91L422 88L416 88M431 88L431 92L444 92L444 91L440 91L440 90L442 88L431 88M446 88L446 92L459 92L459 91L452 91L452 88L446 88M461 88L461 92L474 92L474 88L466 91L465 88L461 88M484 88L484 92C488.845 92 495.186 93.4648 497 88L490 91L489 88L484 88z"/>
<path style="fill:#020309; stroke:none;" d="M489 88L489 91L491 91L491 88L489 88z"/>
<path style="fill:#7067ca; stroke:none;" d="M502 88L502 92L508 92L508 88L502 88M527 91L521 89C523.739 93.2241 529.43 92 534 92L534 88C530.637 88 527.796 87.2842 527 91M536 88L536 92L549 92L549 91L542 91L542 88L536 88M551 88L551 92L555 90L556 90L557 90L564 92L564 88L551 88M566 88L566 92L579 92L579 91L575 91L575 90L577 88L566 88M581 92L589 90L594 92C590.503 88.0645 583.2 85.7446 581 92M596 88L596 92L600 90L601 90L602 90L609 92L609 88L596 88M611 88C612.814 93.4648 619.155 92 624 92L624 88L611 88M46 89L46 90L49 90L46 89M49 90L50 91L49 90M85 90L86 91L85 90z"/>
<path style="fill:#1025e3; stroke:none;" d="M110 90L111 91L110 90z"/>
<path style="fill:#020309; stroke:none;" d="M617.667 90.3333L618.333 90.6667L617.667 90.3333z"/>
<path style="fill:#7067ca; stroke:none;" d="M50 91L50 92L53 92L50 91M82 91L82 92L85 92L82 91z"/>
<path style="fill:#1025e3; stroke:none;" d="M109 91L110 92L109 91M386 91L387 92L386 91M521 91L522 92L521 91M611 91L612 92L611 91z"/>
<path style="fill:#7067ca; stroke:none;" d="M53 92L54 93L53 92M81 92L82 93L81 92z"/>
<path style="fill:#1025e3; stroke:none;" d="M371 92L371 93L377 93L371 92M388 92L388 93L397 93L388 92M401 92L401 93L405 93L401 92M409 92L409 93L414 93L409 92M416 92L416 93L429 93L416 92M431 92L431 93L437 93L431 92M439 92L439 93L444 93L439 92M446 92L446 93L459 93L446 92M461 92L461 93L472 93L461 92M484 92L484 93L495 93L484 92M502 92L502 93L508 93L502 92M523 92L523 93L532 93L523 92M536 92L536 93L549 93L536 92M551 92L551 93L555 93L551 92M557 92L557 93L564 93L557 92M566 92L566 93L572 93L566 92M574 92L574 93L579 93L574 92M581 92L581 93L585 93L581 92M591 92L591 93L594 93L591 92M596 92L596 93L600 93L596 92M604 92L604 93L609 93L604 92M613 92L613 93L624 93L613 92z"/>
<path style="fill:#7067ca; stroke:none;" d="M36 93L37 94L36 93M60 93L61 94L60 93M74 93L74 94L81 94L74 93z"/>
<path style="fill:#1025e3; stroke:none;" d="M107 93L108 94L107 93z"/>
<path style="fill:#7067ca; stroke:none;" d="M37 94L38 95L37 94M61 94L62 95L61 94M73 94L74 95L73 94z"/>
<path style="fill:#1025e3; stroke:none;" d="M106 94L107 95L106 94z"/>
<path style="fill:#7067ca; stroke:none;" d="M38.6667 95.3333L39.3333 95.6667L38.6667 95.3333M62 95L62 96L73 96L62 95z"/>
<path style="fill:#1025e3; stroke:none;" d="M105 95L106 96L105 95z"/>
<path style="fill:#7067ca; stroke:none;" d="M40 96L41 97L40 96z"/>
<path style="fill:#1025e3; stroke:none;" d="M104 96L105 97L104 96z"/>
<path style="fill:#7067ca; stroke:none;" d="M41.6667 97.3333L42.3333 97.6667L41.6667 97.3333M43 98L44 99L43 98z"/>
<path style="fill:#1025e3; stroke:none;" d="M102 98L103 99L102 98z"/>
<path style="fill:#7067ca; stroke:none;" d="M45 99L46 100L45 99z"/>
<path style="fill:#1025e3; stroke:none;" d="M101 99L102 100L101 99z"/>
<path style="fill:#7067ca; stroke:none;" d="M47 100L48 101L47 100z"/>
<path style="fill:#1025e3; stroke:none;" d="M99 100L98 102L100 102L99 100z"/>
<path style="fill:#7067ca; stroke:none;" d="M48 101L48 102L51 102L48 101M51 102L51 103L54 103L51 102M96 102L97 103L96 102M54 103L54 104L57 104L57 109L58 109L60 104L54 103z"/>
<path style="fill:#1025e3; stroke:none;" d="M94.6667 103.333L95.3333 103.667L94.6667 103.333M92 104L93 105L92 104M90 105L91 106L90 105M87 106L88 107L87 106M85 107L86 108L85 107M81 108L82 109L81 108z"/>
<path style="fill:#7067ca; stroke:none;" d="M63 109L64 110L63 109z"/>
<path style="fill:#1025e3; stroke:none;" d="M77.6667 109.333L78.3333 109.667L77.6667 109.333z"/>
</svg>
