<?xml version="1.0" standalone="yes"?>
<svg xmlns="http://www.w3.org/2000/svg" width="261" height="261">
<path style="fill:#010202; stroke:none;" d="M0 0L0 117L1 117C1.47009 60.2133 60.008 1.15698 117 1L81 0L0 0z"/>
<path style="fill:#5e55f0; stroke:none;" d="M117 0L117 1L132 1L122 14L155 16L155 15L153 14L157 9L159 10L162 4C147.068 -0.197784 132.364 0 117 0z"/>
<path style="fill:#010202; stroke:none;" d="M144 0L144 1C199.51 1.45944 258.843 57.9684 260 114L261 114L261 0L144 0z"/>
<path style="fill:#0812e9; stroke:none;" d="M108 1L109 2L108 1z"/>
<path style="fill:#09affd; stroke:none;" d="M4 98C8.58443 96.1018 15.0054 94.9546 18.6103 91.466C25.9109 84.4011 29.0658 71.3923 35.1582 63C45.168 49.2115 58.1801 37.3461 73 28.8727C82.4172 23.4883 92.5258 19.6341 103 16.8843C115.884 13.5017 125.16 14.3993 132 1C73.5856 1 16.4701 37.7443 4 98z"/>
<path style="fill:#0812e9; stroke:none;" d="M151 1L152 2L151 1M102.667 2.33334L103.333 2.66666L102.667 2.33334M156 2L156 3L159 3L156 2z"/>
<path style="fill:#5e55f0; stroke:none;" d="M98 3L99 4L98 3z"/>
<path style="fill:#0812e9; stroke:none;" d="M160 3L160 4L159 10L157 9L153 15C200.051 28.2532 235.881 60.9724 246 110L259 105C255.149 57.8567 206.281 9.23727 160 3z"/>
<path style="fill:#5e55f0; stroke:none;" d="M94 4L95 5L94 4z"/>
<path style="fill:#0812e9; stroke:none;" d="M82 8L83 9L82 8M75 11L76 12L75 11M73 12L74 13L73 12z"/>
<path style="fill:#e2ccff; stroke:none;" d="M129 13.5139C108.715 14.7883 89.8908 18.6434 72 28.8727C2.75204 68.466 -5.66113 167.822 54 219.711C78.7187 241.209 110.878 249.123 143 246.91C158.123 245.869 173.833 240.483 187 233.138C258.464 193.27 267.565 90.883 204 39.2608C193.543 30.7683 181.766 24.2586 169 20C156.365 15.7849 142.415 12.6711 129 13.5139z"/>
<path style="fill:#5e55f0; stroke:none;" d="M69 14L70 15L69 14M157.667 16.3333L158.333 16.6667L157.667 16.3333M161.667 17.3333L162.333 17.6667L161.667 17.3333z"/>
<path style="fill:#0812e9; stroke:none;" d="M62 18L63 19L62 18z"/>
<path style="fill:#5e55f0; stroke:none;" d="M164.667 18.3333L165.333 18.6667L164.667 18.3333M167 19L168 20L167 19M59 20L60 21L59 20M170.667 20.3333L171.333 20.6667L170.667 20.3333M173 21L174 22L173 21z"/>
<path style="fill:#0812e9; stroke:none;" d="M56 22L57 23L56 22z"/>
<path style="fill:#5e55f0; stroke:none;" d="M176 22L177 23L176 22M178 23L179 24L178 23M180 24L181 25L180 24M52 25L53 26L52 25M182 25L183 26L182 25M184 26L185 27L184 26M186 27L187 28L186 27M47 29L48 30L47 29M46 30L47 31L46 30M191 30L192 31L191 30M193 31L194 32L193 31M194 32L195 33L194 32M197 34L198 35L197 34z"/>
<path style="fill:#0812e9; stroke:none;" d="M128 36L128 41L123 41L123 45L119 45L119 50L114 50L114 54L109 54L109 59L100 63L100 67C103.582 67.5681 104.943 68.5082 106 72L110 72L110 81L106 81L106 77L60 77L60 81L47 81L47 90L51 90L51 94C58.8515 96.3835 56 109.338 56 116L60 116L60 121L65 121L65 131L47 131L47 135L51 135L51 140L56 140L56 144L60 144L60 149L43 149L43 157L47 157L47 171L51 171L51 180C55.7024 181.428 55.9464 184.461 56 189L60 189C60.5765 192.474 61.5256 193.423 65 194L65 198L69 198L69 202L74 207L78 207L78 211L87 211L87 216L97 216L97 220L114 220L114 225L146 225L146 220L164 220L164 216L173 216L173 212L182 212L182 207L187 207L187 202L191 202L191 198L196 198L196 194L200 194L200 189L205 189L205 180L209 180L209 171L214 171L214 157L218 157L218 149L200 149L200 144L205 144L205 140L209 140L209 135L214 135L214 131L196 131L196 121L200 121L200 116L205 116L205 94L209 94L209 90L214 90L214 81L200 81L200 77L155 77L155 81L151 81L151 72L155 72L155 67L160 67L160 63L155 63L155 59L151 59L151 54L146 54L146 50L141 50L141 45L137 45L137 41L132 41L132 36L128 36z"/>
<path style="fill:#5e55f0; stroke:none;" d="M132 36L132 41L133 41L132 36M200 36L201 37L200 36M201 37L202 38L201 37M205 40L206 41L205 40M206 41L207 42L206 41M207 42L208 43L207 42M122 44L123 45L122 44M137 44L138 45L137 44M141 45L141 50L142 50L141 45M30 46L31 47L30 46z"/>
<path style="fill:#e2ccff; stroke:none;" d="M128 46L128 50L124 50L124 54L128 54L128 50L132 50L132 46L128 46z"/>
<path style="fill:#5e55f0; stroke:none;" d="M132 46L132 50L133 50L132 46M29 47L30 48L29 47M123 50L123 54L119 54L119 55L128 55L128 54L124 54L123 50M25 52L26 53L25 52M146 53L147 54L146 53M218 53L219 54L218 53M219 54L220 55L219 54z"/>
<path style="fill:#e2ccff; stroke:none;" d="M119 55L119 59L115 59L115 63L128 63L124 59L124 55L119 55z"/>
<path style="fill:#5e55f0; stroke:none;" d="M220 55L221 56L220 55M22 56L23 57L22 56M106 58L106 59L109 59L106 58M20 59L21 60L20 59M105 59L105 62L106 62L105 59M114 59L114 63L115 63L114 59M127 59L128 60L127 59M155 59L155 63L156 63L155 59M223 59L224 60L223 59M224 60L225 61L224 60z"/>
<path style="fill:#0812e9; stroke:none;" d="M18 62L19 63L18 62z"/>
<path style="fill:#5e55f0; stroke:none;" d="M100 62L100 63L105 63L100 62M34 63L35 64L34 63M115 63L115 64L128 64L115 63M226 63L227 64L226 63M228 66L229 67L228 66z"/>
<path style="fill:#0812e9; stroke:none;" d="M15 67L16 68L15 67z"/>
<path style="fill:#5e55f0; stroke:none;" d="M100 67L100 68L105 68L100 67M155 67L155 72L156 72L156 68L160 68L155 67M229 67L230 68L229 67M105 68L105 72L106 72L105 68M14 69L15 70L14 69M230 69L231 70L230 69M13 71L14 72L13 71M231 71L232 72L231 71M109 72L110 73L109 72M12 73L13 74L12 73M109 74L109 81L110 81L109 74M233 74L234 75L233 74z"/>
<path style="fill:#0812e9; stroke:none;" d="M11 75L12 76L11 75z"/>
<path style="fill:#5e55f0; stroke:none;" d="M60 76L60 77L105 77C93.2988 72.09 72.742 76 60 76M234 76L235 77L234 76z"/>
<path style="fill:#0812e9; stroke:none;" d="M10 77L11 78L10 77z"/>
<path style="fill:#5e55f0; stroke:none;" d="M25 78L26 79L25 78M235 78L236 79L235 78M9 80L10 81L9 80M24 80L25 81L24 80M236 80L237 81L236 80M46 81L46 90L47 90L46 81z"/>
<path style="fill:#0812e9; stroke:none;" d="M8 82L9 83L8 82z"/>
<path style="fill:#5e55f0; stroke:none;" d="M237 83L238 84L237 83M7 85L8 86L7 85M238 85L239 86L238 85M21 87L22 88L21 87M239 87L240 88L239 87M6 88L7 89L6 88M20.3333 89.6667L20.6667 90.3333L20.3333 89.6667M47 90L47 91L51 91L47 90M69 90C69 96.0502 66.2995 107.715 74 109L74 108L70 108L70 91L103 91L69 90z"/>
<path style="fill:#e2ccff; stroke:none;" d="M70 91L70 108L74 108L74 112L83 112L83 117L100 117L100 112L109 112L109 99L114 99L114 95L109 95L109 90L70 91M151 90L151 95L146 95L146 99L151 99L151 112C155.539 112.054 158.572 112.298 160 117L177 117C178.428 112.298 181.461 112.054 186 112L191 108L189.972 91.6034L180 90L151 90z"/>
<path style="fill:#5e55f0; stroke:none;" d="M190 90L191 91L190 90M209 90L210 91L209 90M240 90L241 91L240 90M5 91L6 92L5 91M19 91C14.6521 93.7513 7.94223 94.3971 4.58873 98.3904C-2.16556 106.433 0 127.085 0 137L1 137C1 133.488 0.116187 128.432 2.60339 125.569C7.6514 119.758 12.7987 122.285 13 129L14 129L16.4252 105L19 91M109 91L109 95L114 95L114 94L109 91M241 93L242 94L241 93z"/>
<path style="fill:#0812e9; stroke:none;" d="M4 94L5 95L4 94z"/>
<path style="fill:#5e55f0; stroke:none;" d="M51 94L51 95L55 95L51 94M146 94L146 95L151 95L146 94M205 94L205 95L209 95L205 94M4 95L5 96L4 95M55 95L55 116L56 116L55 95M242 96L243 97L242 96z"/>
<path style="fill:#0812e9; stroke:none;" d="M3 98L4 99L3 98z"/>
<path style="fill:#5e55f0; stroke:none;" d="M109 99L109 112L110 112L109 99M243.333 99.6667L243.667 100.333L243.333 99.6667z"/>
<path style="fill:#0812e9; stroke:none;" d="M2.33333 102.667L2.66667 103.333L2.33333 102.667z"/>
<path style="fill:#5e55f0; stroke:none;" d="M128 103L128 104L132 104L132 113L137 113L137 112L133 112C132.984 107.345 133.225 103.872 128 103M244.333 103.667L244.667 104.333L244.333 103.667z"/>
<path style="fill:#e2ccff; stroke:none;" d="M128 104L128 113L124 113L124 122L137 122L137 113L132 113L132 104L128 104z"/>
<path style="fill:#5e55f0; stroke:none;" d="M246 110L247 136L260 132L260 141L261 141L259 105L246 110M245 107L245 110L246 110L245 107z"/>
<path style="fill:#0812e9; stroke:none;" d="M259 107L259 110L260 110L259 107z"/>
<path style="fill:#5e55f0; stroke:none;" d="M187 108L187 109L191 109L187 108z"/>
<path style="fill:#0812e9; stroke:none;" d="M1 109L2 110L1 109z"/>
<path style="fill:#5e55f0; stroke:none;" d="M186 109L178 112L178 113L187 113L186 109M74 112L74 113L83 113L74 112M100 112L100 113L109 113L100 112M124 112L124 113L128 113L124 112M151 112L151 113L159 113L151 112M177 113L177 117L178 117L177 113z"/>
<path style="fill:#0812e9; stroke:none;" d="M260 114L260 117L261 117L260 114z"/>
<path style="fill:#5e55f0; stroke:none;" d="M56 116L56 117L60 117L56 116z"/>
<path style="fill:#0812e9; stroke:none;" d="M0 117L0 121L1 121L0 117M75 249L75 248C69.7766 244.838 67.0913 238.241 61.9861 234.35C45.0522 221.44 26.3554 212.601 19 191L21 192C19.3281 185.394 21.2763 179.48 20.3958 173C18.8841 161.874 14.6243 151.31 13.2855 140C12.856 136.372 14.9515 124.41 11.3966 122.388C6.43114 119.564 1.25525 125.783 1.01543 130.015C0.299057 142.655 0.945384 154.656 4.42824 167C13.6583 199.713 41.1904 238.301 75 249z"/>
<path style="fill:#5e55f0; stroke:none;" d="M64 121L64 131L65 131L64 121M46 131L46 135L47 135L46 131z"/>
<path style="fill:#09affd; stroke:none;" d="M259 132C256.078 133.358 249.988 134.08 248.028 136.6C245.375 140.009 245.868 148.722 244.996 153C242.737 164.079 239.063 175.024 233.691 185C217.397 215.253 187.802 238.093 154 244.996C139.445 247.969 110.956 239.885 109 259C164.973 269.391 222.791 239.899 248.241 189C255.515 174.452 265.798 148.165 259 132z"/>
<path style="fill:#5e55f0; stroke:none;" d="M13 133L13 142L14 142L13 133M47 135L47 136L51 136L47 135M209 135L209 140L210 140L210 136L214 136L209 135M55 140L55 144L56 144L55 140z"/>
<path style="fill:#e2ccff; stroke:none;" d="M128 140L128 144L124 144L124 149L119 149L119 153L115 153C113.572 157.702 110.539 157.946 106 158L106 162L110 162L110 167L115 167L115 171L146 171L146 167L150 167L150 162L155 162L155 158L146 158L146 153L141 153L141 149L137 149L137 144L132 144L132 140L128 140z"/>
<path style="fill:#5e55f0; stroke:none;" d="M132 140L132 144L133 144L132 140M260.333 143.667L260.667 144.333L260.333 143.667z"/>
<path style="fill:#010202; stroke:none;" d="M0 144L0 261L117 261L117 260C72.8953 259.635 30.156 224.244 11.784 186C5.30244 172.508 5.574 157.161 0 144z"/>
<path style="fill:#5e55f0; stroke:none;" d="M56 144L56 145L60 145L56 144M200 144L200 145L205 145L200 144M14 145L14 150L15 150L14 145z"/>
<path style="fill:#0812e9; stroke:none;" d="M260 146L261 147L260 146z"/>
<path style="fill:#010202; stroke:none;" d="M260 147C259.539 202.756 198.987 259.848 144 260L144 261L261 261L261 182L260 147z"/>
<path style="fill:#5e55f0; stroke:none;" d="M43 148L43 149L46 149L43 148M119 148L119 149L124 149L119 148M137 148L137 149L141 149L137 148M200 148L200 149L218 149L200 148M42 149L42 158L46 158L46 171L47 171L47 157L43 157L42 149M218 149L218 157L214 157L214 158L219 158L218 149M15 152L15 156L16 156L15 152M114 153L114 157L115 157L114 153z"/>
<path style="fill:#0812e9; stroke:none;" d="M259.333 153.667L259.667 154.333L259.333 153.667z"/>
<path style="fill:#5e55f0; stroke:none;" d="M16.3333 157.667L16.6667 158.333L16.3333 157.667M106 157L106 158L114 158L106 157M146 157L146 158L155 158L146 157z"/>
<path style="fill:#e2ccff; stroke:none;" d="M78 158L78 168L83 168L83 172L87 172L87 168L83 168C82.9963 163.151 83.6102 158.936 78 158z"/>
<path style="fill:#5e55f0; stroke:none;" d="M82 158L83 159L82 158M177 158L177 159L181 159L181 168L182 168L182 158L177 158M258.333 158.667L258.667 159.333L258.333 158.667z"/>
<path style="fill:#e2ccff; stroke:none;" d="M177 159L177 168L181 168L181 159L177 159z"/>
<path style="fill:#5e55f0; stroke:none;" d="M17 162L18 163L17 162M106 162L106 163L110 163L106 162M150 162L150 166L151 166L151 163L155 163L150 162M257 163L258 164L257 163M18 165L19 166L18 165M114 167L114 171L115 171L114 167z"/>
<path style="fill:#0812e9; stroke:none;" d="M256 167L257 168L256 167z"/>
<path style="fill:#5e55f0; stroke:none;" d="M19.3333 168.667L19.6667 169.333L19.3333 168.667z"/>
<path style="fill:#e2ccff; stroke:none;" d="M172 168L172 172L177 172L177 168L172 168z"/>
<path style="fill:#0812e9; stroke:none;" d="M255 170L256 171L255 170z"/>
<path style="fill:#5e55f0; stroke:none;" d="M20.3333 171.667L20.6667 172.333L20.3333 171.667M209 171L209 180L205 180L205 181L210 181L209 171M83 172L83 173L87 173L83 172M172 172L172 173L177 173L172 172M21 173L21 192L19 191L19 192C25.985 212.514 43.4826 221.724 60.0139 233.62C65.4925 237.562 68.276 243.836 73.2994 247.648C82.3348 254.505 97.8252 258.519 109 259L114 246C84.1081 244.697 53.7245 223.176 36.4784 200C30.1719 191.525 26.7805 181.603 21 173M253 176L254 177L253 176M162 187L163 187L163 178L167 178L167 182L168 182L168 177C161.636 177.496 162.004 181.528 162 187z"/>
<path style="fill:#e2ccff; stroke:none;" d="M163 178L163 182L167 182L167 178L163 178z"/>
<path style="fill:#5e55f0; stroke:none;" d="M51 180L51 181L55 181L51 180M55 181L55 189L56 189L55 181M251 181L252 182L251 181z"/>
<path style="fill:#e2ccff; stroke:none;" d="M153 182L153 187L162 187L162 182L153 182z"/>
<path style="fill:#5e55f0; stroke:none;" d="M148 187C148.577 190.474 149.526 191.423 153 192L153 191L149 191L148 187z"/>
<path style="fill:#e2ccff; stroke:none;" d="M149 187L149 191L153 191L153 187L149 187z"/>
<path style="fill:#5e55f0; stroke:none;" d="M200 189L200 190L205 190L200 189M120 191L120 192L140 192L120 191z"/>
<path style="fill:#e2ccff; stroke:none;" d="M120 192L120 196L140 196L140 192L120 192z"/>
<path style="fill:#5e55f0; stroke:none;" d="M60 193L61 194L60 193M64 194L64 198L65 198L64 194M244 195L245 196L244 195M120 196L120 197L140 197L120 196M191 198L191 202L192 202L192 199L196 199L191 198M69 202L69 203L73 203L69 202M187 202L187 203L191 203L187 202M73 203L73 207L74 207L73 203M182 207L182 212L183 212L182 207M78 211L78 212L87 212L78 211M173 212L173 216L174 216L173 212M96 216L96 220L97 220L96 216M164 216L165 217L164 216M227 218L228 219L227 218M226 219L227 220L226 219M97 220L97 221L114 221L97 220M146 220L146 221L164 221L146 220M225 220L226 221L225 220M224 221L225 222L224 221M223 222L224 223L223 222M222 223L223 224L222 223M221 224L222 225L221 224M124 225L124 226L146 226L124 225M220 225L221 226L220 225M219 226L220 227L219 226M218 227L219 228L218 227M207 236L208 237L207 236M191 246L192 247L191 246M189 247L190 248L189 247M187 248L188 249L187 248z"/>
<path style="fill:#0812e9; stroke:none;" d="M76 249L77 250L76 249z"/>
<path style="fill:#5e55f0; stroke:none;" d="M185 249L186 250L185 249z"/>
<path style="fill:#0812e9; stroke:none;" d="M78 250L79 251L78 250z"/>
<path style="fill:#5e55f0; stroke:none;" d="M183 250L184 251L183 250z"/>
<path style="fill:#0812e9; stroke:none;" d="M80 251L81 252L80 251z"/>
<path style="fill:#5e55f0; stroke:none;" d="M178 252L179 253L178 252z"/>
<path style="fill:#0812e9; stroke:none;" d="M85 253L86 254L85 253z"/>
<path style="fill:#5e55f0; stroke:none;" d="M175 253L176 254L175 253z"/>
<path style="fill:#0812e9; stroke:none;" d="M88 254L89 255L88 254M91 255L92 256L91 255M95 256L96 257L95 256z"/>
<path style="fill:#5e55f0; stroke:none;" d="M166 256L167 257L166 256z"/>
<path style="fill:#0812e9; stroke:none;" d="M98 257L99 258L98 257z"/>
<path style="fill:#5e55f0; stroke:none;" d="M162 257L163 258L162 257z"/>
<path style="fill:#0812e9; stroke:none;" d="M103 258L104 259L103 258z"/>
<path style="fill:#5e55f0; stroke:none;" d="M157 258L158 259L157 258z"/>
<path style="fill:#0812e9; stroke:none;" d="M158 258L159 259L158 258M109 259L110 260L109 259z"/>
<path style="fill:#5e55f0; stroke:none;" d="M110.667 259.333L111.333 259.667L110.667 259.333M151 259L152 260L151 259z"/>
<path style="fill:#0812e9; stroke:none;" d="M152 259L153 260L152 259z"/>
<path style="fill:#5e55f0; stroke:none;" d="M117 260L117 261L121 261L117 260z"/>
</svg>
